<svg width="318" height="198" viewBox="0 0 318 198" fill="none" xmlns="http://www.w3.org/2000/svg">
<path d="M50.6136 129.282C50.6136 128.284 50.6136 127.286 50.6136 126.121C50.6136 114.141 53.2775 109.482 61.1026 107.818C60.4367 105.323 60.2702 102.494 60.1037 99.3328C59.6042 84.8571 55.9414 74.5412 48.6157 70.7143C47.2838 70.0487 45.6189 70.2151 44.9529 71.2134C44.1204 72.3781 44.2869 73.8756 45.9518 74.7076C52.2785 78.5345 54.9424 90.6807 54.9424 98.1681C54.9424 112.311 48.7822 120.963 30.801 120.963C14.6513 120.963 6.82618 108.817 6.82618 87.3529C6.82618 47.7529 28.6367 29.1176 50.7801 29.1176C64.599 29.1176 73.5895 36.1059 78.7508 49.2504C84.0785 35.6067 91.9037 29.1176 110.384 29.1176C133.527 29.1176 151.008 49.4168 151.008 86.3546C151.008 110.314 144.016 120.963 126.201 120.963C112.382 120.963 107.387 115.805 106.721 101.995C105.723 80.8639 101.727 72.5445 94.734 69.0504C92.9026 68.2185 91.5707 68.3849 90.9047 69.716C90.4052 70.8807 90.9047 72.0454 91.7372 72.7109C98.2304 77.037 100.728 86.1882 100.894 97.5025C100.894 101.829 100.561 105.489 99.5623 108.65C105.057 110.813 107.054 115.639 107.054 126.121C107.054 127.286 107.054 128.284 107.054 129.282C115.712 128.783 124.37 128.118 133.36 127.119C146.18 125.622 153.506 135.771 153.506 148.25C153.506 163.724 146.18 171.378 133.194 172.709C96.066 176.536 61.6021 176.536 24.4743 172.709C11.8209 171.378 4.3288 163.724 4.3288 148.25C4.3288 135.771 11.8209 125.622 24.4743 127.119C33.2984 127.951 41.956 128.783 50.6136 129.282ZM208.814 92.8437C208.814 92.5109 208.814 92.1781 208.814 91.8454C208.814 90.0151 208.814 88.3513 208.981 86.8538C183.008 83.3597 167.524 73.8756 167.524 57.0706C167.524 35.1076 194.663 25.9563 237.118 25.9563C279.407 25.9563 306.545 34.442 306.545 57.0706C306.545 74.3748 291.062 83.526 265.089 86.8538C265.255 88.3513 265.255 90.0151 265.255 91.8454C265.255 92.1781 265.255 92.5109 265.255 92.8437C275.911 92.5109 286.4 92.0118 296.223 91.3462C305.879 90.8471 311.707 96.005 311.707 102.494C311.707 110.148 305.879 113.975 296.056 114.64C259.262 117.136 213.476 117.136 177.847 114.64C168.357 113.808 162.529 110.148 162.529 102.494C162.529 96.005 168.357 90.8471 177.847 91.3462C187.503 92.0118 197.992 92.5109 208.814 92.8437ZM228.461 63.5597C226.13 64.8908 228.96 70.0487 232.623 68.0521C240.115 63.726 246.775 56.5714 249.605 49.084C250.937 45.5899 246.275 42.9277 244.943 45.2571C240.614 52.9109 235.287 59.0672 228.461 63.5597ZM196.661 153.575C180.844 153.408 169.689 149.415 168.856 140.43C168.024 131.445 181.343 125.622 199.158 123.126C223.133 119.965 251.603 117.469 274.079 121.296C289.896 124.124 298.554 129.449 302.217 134.939C307.711 142.926 306.046 157.901 299.719 165.887C293.892 173.042 283.07 177.202 265.921 177.368C247.774 178.034 236.619 172.21 234.787 164.224C232.456 155.405 236.785 144.923 244.111 138.6C245.443 137.435 242.279 136.603 240.947 137.768C228.128 147.252 213.976 153.908 196.661 153.575Z" fill="url(#paint0_linear_64_383)"/>
<path d="M117.821 99.675C117.164 99.2068 117.381 98.1812 118.171 98.0174L126.059 96.3842C126.287 96.3369 126.489 96.2053 126.625 96.0158L131.303 89.4608C131.771 88.8045 132.797 89.0204 132.961 89.8101L134.595 97.6937C134.643 97.9218 134.774 98.1234 134.964 98.2587L141.523 102.934C142.18 103.402 141.964 104.427 141.174 104.591L133.285 106.224C133.057 106.272 132.855 106.403 132.72 106.593L128.042 113.148C127.573 113.804 126.547 113.588 126.383 112.798L124.749 104.915C124.702 104.687 124.57 104.485 124.38 104.35L117.821 99.675Z" fill="white"/>
<path d="M175.483 52.596C174.595 52.2087 174.595 50.951 175.483 50.5634L184.342 46.6955C184.597 46.5836 184.801 46.3793 184.915 46.1232L188.784 37.27C189.172 36.3833 190.43 36.3833 190.818 37.27L194.688 46.1232C194.801 46.3793 195.006 46.5836 195.26 46.6955L204.119 50.5634C205.007 50.951 205.007 52.2087 204.119 52.596L195.26 56.464C195.006 56.5758 194.801 56.7803 194.688 57.0364L190.818 65.8896C190.43 66.7761 189.172 66.7761 188.784 65.8896L184.915 57.0364C184.801 56.7803 184.597 56.5758 184.342 56.464L175.483 52.596Z" fill="white"/>
<defs>
<linearGradient id="paint0_linear_64_383" x1="98.2304" y1="7.73936e-06" x2="317.875" y2="198.139" gradientUnits="userSpaceOnUse">
<stop stop-color="#008DF4"/>
<stop offset="1" stop-color="#B9D1FF"/>
</linearGradient>
</defs>
</svg>
